REM DIRINDEX 1\2,1\3
REM DIRNAME folder01,folder02,folder03
TITLE ""
FILE "CD2Track29.mp3" MP3
  TRACK 01 AUDIO
    TITLE "0:"
    INDEX 01 00:00:00
  TRACK 02 AUDIO
    TITLE "2:cjc102_3699"
    INDEX 01 00:00:25
  TRACK 03 AUDIO
    TITLE "0:"
    INDEX 01 00:01:13
  TRACK 04 AUDIO
    TITLE "3:cjc102_3700"
    INDEX 01 00:01:26
  TRACK 05 AUDIO
    TITLE "0:"
    INDEX 01 00:02:65
  TRACK 06 AUDIO
    TITLE "3:cjc102_3701"
    INDEX 01 00:04:09
  TRACK 07 AUDIO
    TITLE "0:"
    INDEX 01 00:08:30
  TRACK 08 AUDIO
    TITLE "2:cjc102_3702"
    INDEX 01 00:08:32
  TRACK 09 AUDIO
    TITLE "0:"
    INDEX 01 00:09:28
  TRACK 10 AUDIO
    TITLE "3:cjc102_3703"
    INDEX 01 00:10:31
  TRACK 11 AUDIO
    TITLE "0:"
    INDEX 01 00:11:29
  TRACK 12 AUDIO
    TITLE "2:cjc102_3704"
    INDEX 01 00:11:70
  TRACK 13 AUDIO
    TITLE "0:"
    INDEX 01 00:13:08
  TRACK 14 AUDIO
    TITLE "3:cjc102_3705"
    INDEX 01 00:14:04
  TRACK 15 AUDIO
    TITLE "0:"
    INDEX 01 00:14:64
  TRACK 16 AUDIO
    TITLE "2:cjc102_3706"
    INDEX 01 00:15:46
  TRACK 17 AUDIO
    TITLE "0:"
    INDEX 01 00:16:63
  TRACK 18 AUDIO
    TITLE "3:cjc102_3707"
    INDEX 01 00:18:44
  TRACK 19 AUDIO
    TITLE "0:"
    INDEX 01 00:19:44
  TRACK 20 AUDIO
    TITLE "2:cjc102_3708"
    INDEX 01 00:20:16
  TRACK 21 AUDIO
    TITLE "0:"
    INDEX 01 00:21:27
  TRACK 22 AUDIO
    TITLE "3:cjc102_3709"
    INDEX 01 00:22:74
  TRACK 23 AUDIO
    TITLE "0:"
    INDEX 01 00:23:69
  TRACK 24 AUDIO
    TITLE "2:cjc102_3710"
    INDEX 01 00:24:39
  TRACK 25 AUDIO
    TITLE "0:"
    INDEX 01 00:25:54
  TRACK 26 AUDIO
    TITLE "3:cjc102_3711"
    INDEX 01 00:27:26
  TRACK 27 AUDIO
    TITLE "0:"
    INDEX 01 00:28:04
  TRACK 28 AUDIO
    TITLE "2:cjc102_3712"
    INDEX 01 00:29:09
  TRACK 29 AUDIO
    TITLE "0:"
    INDEX 01 00:30:30
  TRACK 30 AUDIO
    TITLE "3:cjc102_3713"
    INDEX 01 00:32:47
  TRACK 31 AUDIO
    TITLE "0:"
    INDEX 01 00:33:46
  TRACK 32 AUDIO
    TITLE "2:cjc102_3714"
    INDEX 01 00:33:62
  TRACK 33 AUDIO
    TITLE "0:"
    INDEX 01 00:34:71
  TRACK 34 AUDIO
    TITLE "3:cjc102_3715"
    INDEX 01 00:37:10
  TRACK 35 AUDIO
    TITLE "0:"
    INDEX 01 00:38:06
  TRACK 36 AUDIO
    TITLE "2:cjc102_3716"
    INDEX 01 00:39:00
  TRACK 37 AUDIO
    TITLE "0:"
    INDEX 01 00:40:17
  TRACK 38 AUDIO
    TITLE "3:cjc102_3717"
    INDEX 01 00:41:57
  TRACK 39 AUDIO
    TITLE "0:"
    INDEX 01 00:42:53
  TRACK 40 AUDIO
    TITLE "2:cjc102_3718"
    INDEX 01 00:43:33
  TRACK 41 AUDIO
    TITLE "0:"
    INDEX 01 00:44:44
  TRACK 42 AUDIO
    TITLE "3:cjc102_3719"
    INDEX 01 00:45:39
  TRACK 43 AUDIO
    TITLE "0:"
    INDEX 01 00:46:33
  TRACK 44 AUDIO
    TITLE "2:cjc102_3720"
    INDEX 01 00:47:40
  TRACK 45 AUDIO
    TITLE "0:"
    INDEX 01 00:48:61
  TRACK 46 AUDIO
    TITLE "3:cjc102_3721"
    INDEX 01 00:50:17
  TRACK 47 AUDIO
    TITLE "0:"
    INDEX 01 00:51:09
  TRACK 48 AUDIO
    TITLE "2:cjc102_3722"
    INDEX 01 00:51:71
  TRACK 49 AUDIO
    TITLE "0:"
    INDEX 01 00:53:00
  TRACK 50 AUDIO
    TITLE "3:cjc102_3723"
    INDEX 01 00:54:32
  TRACK 51 AUDIO
    TITLE "0:"
    INDEX 01 00:55:48
  TRACK 52 AUDIO
    TITLE "2:cjc102_3724"
    INDEX 01 00:56:37
  TRACK 53 AUDIO
    TITLE "0:"
    INDEX 01 00:57:58
  TRACK 54 AUDIO
    TITLE "3:cjc102_3725"
    INDEX 01 00:59:28
  TRACK 55 AUDIO
    TITLE "0:"
    INDEX 01 01:00:39
  TRACK 56 AUDIO
    TITLE "2:cjc102_3726"
    INDEX 01 01:00:68
  TRACK 57 AUDIO
    TITLE "0:"
    INDEX 01 01:02:05
  TRACK 58 AUDIO
    TITLE "3:cjc102_3727"
    INDEX 01 01:03:18
  TRACK 59 AUDIO
    TITLE "0:"
    INDEX 01 01:04:39
  TRACK 60 AUDIO
    TITLE "2:cjc102_3728"
    INDEX 01 01:05:09
  TRACK 61 AUDIO
    TITLE "0:"
    INDEX 01 01:06:32
  TRACK 62 AUDIO
    TITLE "3:cjc102_3729"
    INDEX 01 01:07:59
  TRACK 63 AUDIO
    TITLE "0:"
    INDEX 01 01:09:01
  TRACK 64 AUDIO
    TITLE "2:cjc102_3730"
    INDEX 01 01:09:30
  TRACK 65 AUDIO
    TITLE "0:"
    INDEX 01 01:10:47
  TRACK 66 AUDIO
    TITLE "3:cjc102_3731"
    INDEX 01 01:12:34
  TRACK 67 AUDIO
    TITLE "0:"
    INDEX 01 01:13:40
  TRACK 68 AUDIO
    TITLE "2:cjc102_3732"
    INDEX 01 01:14:27
  TRACK 69 AUDIO
    TITLE "0:"
    INDEX 01 01:15:44
  TRACK 70 AUDIO
    TITLE "3:cjc102_3733"
    INDEX 01 01:17:02
  TRACK 71 AUDIO
    TITLE "0:"
    INDEX 01 01:18:15
  TRACK 72 AUDIO
    TITLE "2:cjc102_3734"
    INDEX 01 01:18:21
  TRACK 73 AUDIO
    TITLE "0:"
    INDEX 01 01:19:28
  TRACK 74 AUDIO
    TITLE "3:cjc102_3735"
    INDEX 01 01:21:18
  TRACK 75 AUDIO
    TITLE "0:"
    INDEX 01 01:22:37
  TRACK 76 AUDIO
    TITLE "2:cjc102_3736"
    INDEX 01 01:23:11
  TRACK 77 AUDIO
    TITLE "0:"
    INDEX 01 01:24:18
  TRACK 78 AUDIO
    TITLE "2:cjc102_3737"
    INDEX 01 01:25:11
  TRACK 79 AUDIO
    TITLE "0:"
    INDEX 01 01:26:21
  TRACK 80 AUDIO
    TITLE "3:cjc102_3738"
    INDEX 01 01:27:57
  TRACK 81 AUDIO
    TITLE "0:"
    INDEX 01 01:29:07
  TRACK 82 AUDIO
    TITLE "2:cjc102_3739"
    INDEX 01 01:29:54
  TRACK 83 AUDIO
    TITLE "0:"
    INDEX 01 01:30:50
  TRACK 84 AUDIO
    TITLE "2:cjc102_3740"
    INDEX 01 01:31:59
  TRACK 85 AUDIO
    TITLE "0:"
    INDEX 01 01:33:03
  TRACK 86 AUDIO
    TITLE "3:cjc102_3741"
    INDEX 01 01:34:61
  TRACK 87 AUDIO
    TITLE "0:"
    INDEX 01 01:36:09
  TRACK 88 AUDIO
    TITLE "2:cjc102_3742"
    INDEX 01 01:36:47
  TRACK 89 AUDIO
    TITLE "0:"
    INDEX 01 01:37:30
  TRACK 90 AUDIO
    TITLE "2:cjc102_3743"
    INDEX 01 01:38:45
  TRACK 91 AUDIO
    TITLE "0:"
    INDEX 01 01:39:51
  TRACK 92 AUDIO
    TITLE "3:cjc102_3744"
    INDEX 01 01:41:05
  TRACK 93 AUDIO
    TITLE "0:"
    INDEX 01 01:42:18
  TRACK 94 AUDIO
    TITLE "2:cjc102_3745"
    INDEX 01 01:43:11
  TRACK 95 AUDIO
    TITLE "0:"
    INDEX 01 01:44:15
  TRACK 96 AUDIO
    TITLE "2:cjc102_3746"
    INDEX 01 01:45:12
  TRACK 97 AUDIO
    TITLE "0:"
    INDEX 01 01:46:33
  TRACK 98 AUDIO
    TITLE "3:cjc102_3747"
    INDEX 01 01:48:28
  TRACK 99 AUDIO
    TITLE "0:"
    INDEX 01 01:49:57
  TRACK 100 AUDIO
    TITLE "2:cjc102_3748"
    INDEX 01 01:50:25
  TRACK 101 AUDIO
    TITLE "0:"
    INDEX 01 01:52:53
  TRACK 102 AUDIO
    TITLE "3:cjc102_3749"
    INDEX 01 01:54:07
  TRACK 103 AUDIO
    TITLE "0:"
    INDEX 01 01:55:26
  TRACK 104 AUDIO
    TITLE "2:cjc102_3750"
    INDEX 01 01:55:28
  TRACK 105 AUDIO
    TITLE "0:"
    INDEX 01 01:59:08
  TRACK 106 AUDIO
    TITLE "3:cjc102_3751"
    INDEX 01 02:00:59
  TRACK 107 AUDIO
    TITLE "0:"
    INDEX 01 02:02:11
  TRACK 108 AUDIO
    TITLE "2:cjc102_3752"
    INDEX 01 02:02:64
  TRACK 109 AUDIO
    TITLE "0:"
    INDEX 01 02:07:20
  TRACK 110 AUDIO
    TITLE "3:cjc102_3753"
    INDEX 01 02:08:37
  TRACK 111 AUDIO
    TITLE "0:"
    INDEX 01 02:09:68
  TRACK 112 AUDIO
    TITLE "2:cjc102_3754"
    INDEX 01 02:10:24
  TRACK 113 AUDIO
    TITLE "0:"
    INDEX 01 02:12:40
